<?xml version="1.0" encoding="iso-8859-1"?>
<!-- Generator: Adobe Illustrator 19.0.0, SVG Export Plug-In . SVG Version: 6.00 Build 0)  -->
<svg version="1.1" id="Capa_1" xmlns="http://www.w3.org/2000/svg" xmlns:xlink="http://www.w3.org/1999/xlink" x="0px" y="0px"
	 viewBox="0 0 512 512" style="enable-background:new 0 0 512 512;" xml:space="preserve">
<path style="fill:#2E3C43;" d="M285.858,214.999c-11.022-2.427-22.345,1.788-29.403,10.456c-4.746,5.829-7.876,12.705-9.962,20.042
	c-13.07-3.406-26.649-9.596-30.84-22.961c-1.384-4.414-1.284-8.83-0.134-13.078c7.431,1.791,15.044,2.733,22.644,2.431
	c12.25-0.488,25.659-4.531,32.16-15.807c3.733-6.475,5.284-15.587,2.072-22.506c-5.452-11.744-19.755-12.756-30.592-8.993
	c-12.816,4.449-26.073,14.119-34.308,26.373c-2.263-0.831-4.461-1.728-6.536-2.683c-27.487-12.648-50.617-37.06-50.851-68.766
	c-0.073-9.898-15.462-9.921-15.389,0c0.271,36.885,26.05,67.135,58.473,82.054c2.515,1.157,5.083,2.25,7.693,3.265
	c-1.445,4.989-1.984,10.194-1.333,15.495c2.824,23.017,23.569,34.789,44.009,40.217c-1.015,8.311-1.245,16.709-1.389,24.46
	c-0.082,4.423-0.074,8.848-0.073,13.272c0.003,9.902,15.392,9.919,15.389,0c-0.003-11.509-0.114-23.243,1.362-34.722
	c16.739,2.165,36.715,0.698,43.087-16.823C306.918,233.035,300.721,218.271,285.858,214.999z M244.026,180.113
	c3.514-1.471,10.486-4.238,13.601-0.688c5.085,5.796-4.627,13.68-9.313,15.364c-4.224,1.517-8.69,1.655-13.128,1.66
	c-1.61,0.002-11.445-1.538-11.859-1.051C229.157,188.542,237.018,183.045,244.026,180.113z M261.884,248.506
	c1.65-5.772,4.078-11.842,8.763-15.689c4.526-3.716,16.906-5.548,17.724,3.131C289.648,249.513,273.443,249.919,261.884,248.506z"/>
<path style="fill:#B5D3E3;" d="M371.46,512H126.825c-4.533,0-8.207-3.675-8.207-8.207V297.872c0-4.533,3.675-8.207,8.207-8.207
	h244.636c4.533,0,8.207,3.675,8.207,8.207v205.921C379.668,508.325,375.993,512,371.46,512z"/>
<g>
	<rect x="162.177" y="328.582" style="fill:#F7CF69;" width="57.982" height="183.409"/>
	<rect x="278.13" y="328.582" style="fill:#F7CF69;" width="57.982" height="183.409"/>
</g>
<g>
	<path style="fill:#97BFFD;" d="M220.147,339.054c0.001,0.095,0.007,0.189,0.007,0.284c0-0.096,0.007-0.189,0.007-0.284H220.147z"/>
	<path style="fill:#97BFFD;" d="M162.17,339.054c0.001,0.095,0.007,0.189,0.007,0.284c0-0.096,0.006-0.189,0.007-0.284H162.17z"/>
	<path style="fill:#97BFFD;" d="M278.123,339.054c0.001,0.095,0.007,0.189,0.007,0.284c0-0.096,0.006-0.189,0.007-0.284H278.123z"/>
	<path style="fill:#97BFFD;" d="M336.101,339.054c0.001,0.095,0.007,0.189,0.007,0.284c0-0.096,0.007-0.189,0.007-0.284H336.101z"/>
</g>
<g>
	<path style="fill:#7ACBA7;" d="M104.207,339.054c-0.001,0.095-0.007,0.189-0.007,0.284c0,16.01,12.979,28.989,28.989,28.989
		s28.989-12.979,28.989-28.989c0-0.096-0.006-0.189-0.007-0.284H104.207z"/>
	<path style="fill:#7ACBA7;" d="M162.184,339.054c-0.001,0.095-0.007,0.189-0.007,0.284c0,16.01,12.979,28.989,28.989,28.989
		s28.989-12.979,28.989-28.989c0-0.096-0.006-0.189-0.007-0.284H162.184z"/>
	<path style="fill:#7ACBA7;" d="M220.161,339.054c-0.001,0.095-0.007,0.189-0.007,0.284c0,16.01,12.979,28.989,28.989,28.989
		s28.989-12.979,28.989-28.989c0-0.096-0.006-0.189-0.007-0.284H220.161z"/>
	<path style="fill:#7ACBA7;" d="M278.138,339.054c-0.001,0.095-0.007,0.189-0.007,0.284c0,16.01,12.979,28.989,28.989,28.989
		c16.01,0,28.989-12.979,28.989-28.989c0-0.096-0.006-0.189-0.007-0.284H278.138z"/>
	<path style="fill:#7ACBA7;" d="M336.108,339.338c0,16.01,12.979,28.989,28.989,28.989c16.01,0,28.989-12.979,28.989-28.989
		c0-0.096-0.006-0.189-0.007-0.284h-57.963C336.114,339.149,336.108,339.242,336.108,339.338z"/>
</g>
<circle style="fill:#168C80;" cx="483.921" cy="459.15" r="21.387"/>
<path style="fill:#F7CF69;" d="M347.554,259.154l-10.179-10.069c-0.788-0.78-1.096-1.923-0.807-2.992l12.805-47.314
	c0.68-2.514,3.98-3.099,5.484-0.973l26.787,37.876c1.002,1.418,0.635,3.382-0.812,4.343l-29.412,19.507
	C350.205,260.336,348.592,260.179,347.554,259.154z"/>
<path style="fill:#B5D3E3;" d="M152.805,251.631l-21.799-18.94c-1.091-0.948-1.376-2.528-0.684-3.798l13.768-25.241
	c1.39-2.548,5.211-1.933,5.73,0.923l8.031,44.181C158.371,251.618,155,253.538,152.805,251.631z"/>
<path style="fill:#7ACBA7;" d="M88.203,246.421L54.26,271.224c-1.962,1.434-4.732,0.136-4.888-2.288l-3.916-61.025
	c-0.18-2.799,3.173-4.36,5.199-2.421l37.859,36.222C89.899,243.036,89.75,245.289,88.203,246.421z"/>
<path style="fill:#B5D3E3;" d="M437.996,247.565l-9.014-31.621c-0.666-2.336,1.509-4.486,3.839-3.794l45.841,13.645
	c2.688,0.801,2.993,4.485,0.472,5.716l-36.828,17.977C440.583,250.327,438.521,249.406,437.996,247.565z"/>
<path style="fill:#F7CF69;" d="M398.015,168.977l-19.497-60.789c-0.751-2.34,1.409-4.572,3.773-3.9l40.007,11.376
	c1.032,0.294,1.838,1.104,2.124,2.139l7.143,25.791c0.319,1.152-0.058,2.385-0.967,3.162l-27.653,23.622
	C401.273,171.805,398.687,171.07,398.015,168.977z"/>
<path style="fill:#168C80;" d="M104.182,339.054v-41.182c0-4.533,3.675-8.207,8.207-8.207h273.505c4.533,0,8.207,3.675,8.207,8.207
	v41.182"/>
<path style="fill:#8ABBD5;" d="M131.902,339.338c0-0.095,0.007-0.189,0.007-0.284h-0.025v-49.39h-13.267h-6.227
	c-4.533,0-8.207,3.675-8.207,8.207v41.182h0.025c-0.001,0.095-0.007,0.189-0.007,0.284c0,10.696,5.797,20.033,14.417,25.056v139.398
	c0,4.533,3.675,8.207,8.207,8.207h19.495V364.394C137.7,359.371,131.902,350.034,131.902,339.338z"/>
<path style="fill:#57BF93;" d="M104.207,339.054c0,0.048-0.002,0.095-0.004,0.143c-0.001,0.047-0.003,0.094-0.003,0.141
	c0,0.603,0.024,1.201,0.061,1.795c0.01,0.171,0.026,0.34,0.039,0.511c0.035,0.445,0.08,0.887,0.135,1.326
	c0.021,0.164,0.039,0.328,0.063,0.491c0.167,1.168,0.402,2.313,0.704,3.432c0.038,0.143,0.08,0.285,0.121,0.426
	c0.127,0.443,0.264,0.883,0.41,1.316c0.042,0.126,0.083,0.252,0.128,0.376c0.392,1.106,0.85,2.183,1.368,3.224
	c0.048,0.095,0.097,0.189,0.146,0.285c0.231,0.451,0.473,0.897,0.727,1.333c0.042,0.072,0.082,0.145,0.124,0.216
	c0.609,1.029,1.279,2.018,2.007,2.959c0.033,0.043,0.067,0.085,0.1,0.127c0.351,0.45,0.716,0.891,1.093,1.32
	c0.017,0.019,0.033,0.038,0.05,0.057c0.813,0.918,1.682,1.785,2.604,2.594c0.009,0.008,0.018,0.015,0.027,0.023
	c1.394,1.22,2.905,2.309,4.514,3.247l0,0c4.283,2.496,9.257,3.931,14.571,3.931c4.728,0,9.187-1.139,13.131-3.147v-0.786
	c-8.62-5.023-14.417-14.36-14.417-25.056c0-0.096,0.007-0.189,0.007-0.284h-0.025l0,0h-27.679V339.054z"/>
<path style="fill:#13776B;" d="M131.884,289.664H112.39c-4.533,0-8.207,3.675-8.207,8.208v41.182h27.702V289.664z"/>
<path style="fill:#EC5569;" d="M187.972,14.161L187.972,14.161c-18.881-18.881-49.494-18.881-68.375,0l-10.665,10.665
	c-2.543,2.543-6.667,2.543-9.209,0L89.228,14.331c-18.881-18.881-49.493-18.881-68.375,0l0,0c-18.881,18.881-18.881,49.494,0,68.375
	l78.876,78.876c2.543,2.543,6.667,2.543,9.209,0l79.034-79.047C206.853,63.654,206.853,33.042,187.972,14.161z"/>
<path style="fill:#E63950;" d="M51.634,82.706c-18.881-18.881-18.881-49.494,0-68.375l0,0c5.471-5.471,11.928-9.345,18.797-11.645
	C53.59-2.954,34.264,0.92,20.854,14.331l0,0c-18.881,18.881-18.881,49.494,0,68.375l78.876,78.876c2.543,2.544,6.667,2.544,9.209,0
	l10.785-10.787L51.634,82.706z"/>
<g>
</g>
<g>
</g>
<g>
</g>
<g>
</g>
<g>
</g>
<g>
</g>
<g>
</g>
<g>
</g>
<g>
</g>
<g>
</g>
<g>
</g>
<g>
</g>
<g>
</g>
<g>
</g>
<g>
</g>
</svg>
